<svg width="614" height="799" viewBox="0 0 614 799" fill="none" xmlns="http://www.w3.org/2000/svg">
<path fill-rule="evenodd" clip-rule="evenodd" d="M379.942 0.171143L381.986 1.50696L544.986 108.007L547.578 109.7L547.7 112.793L553.7 264.763L553.792 267.107L552.271 268.892L462.771 373.892L461.22 375.711L458.844 375.966L338.204 388.891V488.242L488.491 449.193L488.685 449.142L488.882 449.105L604.882 427.105L613.143 425.538L611.938 433.86L559.142 798.39L547.304 798.619L485.27 462.428L333.713 501.807L332.33 502.166L330.934 501.864L147.915 462.204L93.6276 798.486L81.7441 798.22L39.5399 433.69L38.5668 425.285L46.8207 427.147L144.271 449.136L144.321 449.147L326.204 488.561V389.5H159.5H156.823L155.035 387.507L83.2389 307.507L83.1793 307.441L83.1217 307.373C65.2728 286.254 62.6401 261.427 65.3347 238.147C67.2885 221.266 72.1863 204.423 76.3496 190.106C77.8408 184.978 79.2377 180.174 80.3714 175.808C82.6136 167.174 83.7646 160.561 83.374 155.832C83.1869 153.566 82.6681 152.105 82.0454 151.149C81.4767 150.275 80.6078 149.484 79.0154 148.878C75.4267 147.512 68.6219 147.261 56.4892 150.006C44.6105 152.693 28.5859 158.014 7.23816 166.597L0.789795 156.755L98.2898 60.7252L99.5124 59.5211L101.187 59.1455L250.391 25.6754L250.468 25.6581L250.545 25.6428L377.545 0.642838L379.942 0.171143ZM331.884 377.5L455.189 364.289L541.616 262.893L535.831 116.36L377.467 12.8886L252.941 37.4016L105.488 70.4789L29.3377 145.481C38.7662 142.248 46.8827 139.876 53.8411 138.302C66.3803 135.465 76.1871 134.962 83.2834 137.663C87.0335 139.09 90.0254 141.411 92.1026 144.602C94.1257 147.711 95.0378 151.267 95.3333 154.844C95.908 161.802 94.2312 170.179 91.9862 178.824C90.6921 183.807 89.1796 189.009 87.6152 194.389C83.5267 208.45 79.0831 223.732 77.2551 239.526C74.7716 260.983 77.3792 281.943 92.2308 299.56L162.177 377.5H331.884ZM136.178 459.611L52.4334 440.715L88.6834 753.817L136.178 459.611ZM496.984 459.782L552.491 760.597L598.857 440.462L496.984 459.782ZM429.865 154.912L431.038 155.18L459.538 161.68L462.02 162.246L463.337 164.423L474.837 183.423L477.852 188.404L472.964 191.567L447.464 208.067L446.773 208.514L445.988 208.759L418.784 217.229L416.658 217.891L414.614 217.005L384.614 204.005L382.48 203.08L381.527 200.958L373.231 182.488L371.465 178.556L374.628 175.627L384.128 166.831L388.128 163.127L389.43 161.921L391.18 161.618L428.68 155.118L429.865 154.912ZM400.885 172.115L403.759 173.921L425.544 172.559L441.879 169.961L429.543 167.147L400.885 172.115ZM455.883 175.283L452.764 178.93L451.328 180.608L449.147 180.955L446.811 181.327L443.701 188.435L442.654 190.83L440.186 191.693L430.186 195.193L429.041 195.594L427.83 195.518L411.83 194.518L409.765 194.389L408.218 193.014L403.718 189.014L400.761 186.386L400.848 186.126L400.649 186.139L399.012 185.11L388.906 178.761L385.944 181.504L391.52 193.92L417.343 205.109L441.635 197.546L461.556 184.656L455.883 175.283ZM231.687 161.42L232.89 161.771L246.89 165.869L253.39 167.771L259.305 169.503L257.415 175.369L247.915 204.869L247.243 206.956L245.384 208.118L221.384 223.118L219.925 224.03H218.204H184.204H180.879L179.116 221.21L164.116 197.21L161.963 193.765L164.362 190.487L171.862 180.237L179.362 169.987L180.886 167.905L183.445 167.578L230.445 161.578L231.687 161.42ZM179.239 190.476L176.445 194.295L187.53 212.03H216.484L237.165 199.104L242.776 181.68L235.137 188.311L233.952 189.34L232.415 189.656L229.45 190.267L228.396 193.427L226.396 199.427L225.228 202.933L221.571 203.467L207.867 205.467L207.436 205.53H207H196.704H192.509L191.069 201.59L188.865 195.56L188.064 193.369L188.428 192.486L179.239 190.476ZM216.96 180.588L228.456 178.22L232.973 174.299L230.721 173.64L187.523 179.155L186.987 179.887L197.986 182.293L200.918 182.935L216.96 180.588ZM162.299 266.722L217.799 310.222L219.429 311.5H221.5H376.5H378.745L380.438 310.027L430.438 266.527L422.562 257.473L374.255 299.5H223.571L169.701 257.278L162.299 266.722Z" fill="black"/>
</svg>
