<svg width="614" height="799" viewBox="0 0 614 799" fill="none" xmlns="http://www.w3.org/2000/svg">
<path fill-rule="evenodd" clip-rule="evenodd" d="M379.942 0.171143L381.986 1.50696L544.986 108.007L547.577 109.7L547.699 112.793L553.699 264.763L553.792 267.107L552.27 268.892L462.77 373.892L461.22 375.711L458.843 375.966L338.204 388.891V488.242L488.491 449.193L488.685 449.142L488.882 449.105L604.882 427.105L613.143 425.538L611.938 433.86L559.142 798.39L547.304 798.619L485.269 462.428L333.713 501.807L332.33 502.166L330.934 501.864L147.915 462.204L93.6275 798.486L81.744 798.22L39.5398 433.69L38.5666 425.285L46.8206 427.147L144.271 449.136L144.321 449.147L326.204 488.561V389.5H159.5H156.823L155.035 387.507L83.2388 307.507L83.1792 307.441L83.1216 307.373C65.2727 286.254 62.64 261.427 65.3345 238.147C67.2883 221.266 72.1862 204.423 76.3494 190.106C77.8407 184.978 79.2376 180.174 80.3713 175.808C82.6135 167.174 83.7645 160.561 83.3739 155.832C83.1868 153.566 82.668 152.105 82.0453 151.149C81.4766 150.275 80.6076 149.484 79.0153 148.878C75.4266 147.512 68.6217 147.261 56.489 150.006C44.6104 152.693 28.5858 158.014 7.23804 166.597L0.789673 156.755L98.2897 60.7252L99.5123 59.5211L101.187 59.1455L250.391 25.6754L250.468 25.6581L250.545 25.6428L377.545 0.642838L379.942 0.171143ZM331.884 377.5L455.188 364.289L541.616 262.893L535.831 116.36L377.467 12.8886L252.941 37.4016L105.488 70.4789L29.3376 145.481C38.766 142.248 46.8825 139.876 53.841 138.302C66.3802 135.465 76.187 134.962 83.2833 137.663C87.0334 139.09 90.0253 141.411 92.1024 144.602C94.1256 147.711 95.0377 151.267 95.3332 154.844C95.9079 161.802 94.2311 170.179 91.986 178.824C90.692 183.807 89.1795 189.009 87.615 194.389C83.5266 208.45 79.083 223.732 77.255 239.526C74.7715 260.983 77.3791 281.943 92.2307 299.56L162.177 377.5H331.884ZM136.178 459.611L52.4333 440.715L88.6833 753.817L136.178 459.611ZM496.984 459.782L552.491 760.597L598.857 440.462L496.984 459.782ZM429.865 154.912L431.038 155.18L459.538 161.68L462.019 162.246L463.337 164.423L474.837 183.423L477.852 188.404L472.964 191.567L447.464 208.067L446.773 208.514L445.988 208.759L418.784 217.229L416.658 217.891L414.614 217.005L384.614 204.005L382.48 203.08L381.527 200.958L373.231 182.488L371.465 178.556L374.628 175.627L384.128 166.831L388.128 163.127L389.43 161.921L391.179 161.618L428.679 155.118L429.865 154.912ZM400.885 172.115L403.759 173.921L425.544 172.559L441.879 169.961L429.543 167.147L400.885 172.115ZM455.883 175.283L452.764 178.93L451.328 180.608L449.147 180.955L446.811 181.327L443.701 188.435L442.653 190.83L440.186 191.693L430.186 195.193L429.041 195.594L427.83 195.518L411.83 194.518L409.765 194.389L408.218 193.014L403.718 189.014L400.761 186.386L400.848 186.126L400.649 186.139L399.012 185.11L388.906 178.761L385.944 181.504L391.52 193.92L417.342 205.109L441.635 197.546L461.556 184.656L455.883 175.283ZM231.687 161.42L232.89 161.771L246.89 165.869L253.39 167.771L259.305 169.503L257.415 175.369L247.915 204.869L247.243 206.956L245.384 208.118L221.384 223.118L219.925 224.03H218.204H184.204H180.879L179.116 221.21L164.116 197.21L161.963 193.765L164.362 190.487L171.862 180.237L179.362 169.987L180.885 167.905L183.444 167.578L230.444 161.578L231.687 161.42ZM179.239 190.476L176.445 194.295L187.53 212.03H216.483L237.165 199.104L242.776 181.68L235.137 188.311L233.952 189.34L232.415 189.656L229.45 190.267L228.396 193.427L226.396 199.427L225.228 202.933L221.571 203.467L207.866 205.467L207.435 205.53H207H196.704H192.509L191.069 201.59L188.865 195.56L188.064 193.369L188.428 192.486L179.239 190.476ZM216.96 180.588L228.456 178.22L232.973 174.299L230.721 173.64L187.523 179.155L186.987 179.887L197.986 182.293L200.918 182.935L216.96 180.588ZM222.5 271H220.521L218.931 272.177L168.931 309.177L176.069 318.823L224.479 283H375.084L411.842 318.326L420.157 309.674L381.657 272.674L379.916 271H377.5H222.5Z" fill="black"/>
</svg>
